<mxfile host="app.diagrams.net" modified="2024-01-17T00:26:13.377Z" agent="Mozilla/5.0 (Windows NT 10.0; Win64; x64) AppleWebKit/537.36 (KHTML, like Gecko) Chrome/120.0.0.0 Safari/537.36" etag="FvEgZ5Ebt5a7Fka2FVJ4" version="22.1.18" type="github" pages="2">
  <diagram id="W57T_lJiBQjcRxACI7tW" name="Page-2">
    <mxGraphModel dx="1235" dy="614" grid="1" gridSize="10" guides="1" tooltips="1" connect="1" arrows="1" fold="1" page="1" pageScale="1" pageWidth="1169" pageHeight="1654" math="0" shadow="0">
      <root>
        <mxCell id="0" />
        <mxCell id="1" parent="0" />
        <mxCell id="czCNAfB4eK2hzBIca8a_-12" value="" style="edgeStyle=orthogonalEdgeStyle;rounded=0;orthogonalLoop=1;jettySize=auto;html=1;" edge="1" parent="1" source="czCNAfB4eK2hzBIca8a_-1" target="czCNAfB4eK2hzBIca8a_-4">
          <mxGeometry relative="1" as="geometry" />
        </mxCell>
        <mxCell id="RpiR_wWrs781E1UI5E46-20" value="Si Oui" style="edgeLabel;html=1;align=center;verticalAlign=middle;resizable=0;points=[];" vertex="1" connectable="0" parent="czCNAfB4eK2hzBIca8a_-12">
          <mxGeometry x="-0.23" relative="1" as="geometry">
            <mxPoint as="offset" />
          </mxGeometry>
        </mxCell>
        <mxCell id="czCNAfB4eK2hzBIca8a_-13" value="" style="edgeStyle=orthogonalEdgeStyle;rounded=0;orthogonalLoop=1;jettySize=auto;html=1;" edge="1" parent="1" source="czCNAfB4eK2hzBIca8a_-1" target="czCNAfB4eK2hzBIca8a_-2">
          <mxGeometry relative="1" as="geometry" />
        </mxCell>
        <mxCell id="RpiR_wWrs781E1UI5E46-19" value="Si non" style="edgeLabel;html=1;align=center;verticalAlign=middle;resizable=0;points=[];" vertex="1" connectable="0" parent="czCNAfB4eK2hzBIca8a_-13">
          <mxGeometry x="-0.0764" y="3" relative="1" as="geometry">
            <mxPoint as="offset" />
          </mxGeometry>
        </mxCell>
        <mxCell id="czCNAfB4eK2hzBIca8a_-1" value="Compte User&lt;br&gt;&amp;lt;&amp;lt;connexion&amp;gt;&amp;gt;" style="rounded=0;whiteSpace=wrap;html=1;" vertex="1" parent="1">
          <mxGeometry x="20" y="60" width="120" height="60" as="geometry" />
        </mxCell>
        <mxCell id="czCNAfB4eK2hzBIca8a_-14" value="" style="edgeStyle=orthogonalEdgeStyle;rounded=0;orthogonalLoop=1;jettySize=auto;html=1;" edge="1" parent="1" source="czCNAfB4eK2hzBIca8a_-2" target="czCNAfB4eK2hzBIca8a_-3">
          <mxGeometry relative="1" as="geometry" />
        </mxCell>
        <mxCell id="czCNAfB4eK2hzBIca8a_-2" value="Saisir à nouveau le mot de passe" style="rounded=0;whiteSpace=wrap;html=1;" vertex="1" parent="1">
          <mxGeometry x="250" y="60" width="120" height="60" as="geometry" />
        </mxCell>
        <mxCell id="czCNAfB4eK2hzBIca8a_-3" value="Suppression des données du logiciel" style="rounded=0;whiteSpace=wrap;html=1;" vertex="1" parent="1">
          <mxGeometry x="500" y="60" width="120" height="60" as="geometry" />
        </mxCell>
        <mxCell id="czCNAfB4eK2hzBIca8a_-10" value="" style="rounded=0;orthogonalLoop=1;jettySize=auto;html=1;entryX=0;entryY=0.5;entryDx=0;entryDy=0;endArrow=none;endFill=0;" edge="1" parent="1" source="czCNAfB4eK2hzBIca8a_-4" target="czCNAfB4eK2hzBIca8a_-5">
          <mxGeometry relative="1" as="geometry">
            <mxPoint x="200" y="290" as="targetPoint" />
          </mxGeometry>
        </mxCell>
        <mxCell id="czCNAfB4eK2hzBIca8a_-4" value="Page Accueil" style="rounded=0;whiteSpace=wrap;html=1;" vertex="1" parent="1">
          <mxGeometry x="20" y="200" width="120" height="60" as="geometry" />
        </mxCell>
        <mxCell id="czCNAfB4eK2hzBIca8a_-11" value="" style="edgeStyle=orthogonalEdgeStyle;rounded=0;orthogonalLoop=1;jettySize=auto;html=1;" edge="1" parent="1" source="czCNAfB4eK2hzBIca8a_-5" target="czCNAfB4eK2hzBIca8a_-6">
          <mxGeometry relative="1" as="geometry" />
        </mxCell>
        <mxCell id="czCNAfB4eK2hzBIca8a_-5" value="Gestion des véhicules&amp;nbsp;" style="rounded=0;whiteSpace=wrap;html=1;" vertex="1" parent="1">
          <mxGeometry x="220" y="200" width="120" height="60" as="geometry" />
        </mxCell>
        <mxCell id="czCNAfB4eK2hzBIca8a_-15" value="" style="edgeStyle=orthogonalEdgeStyle;rounded=0;orthogonalLoop=1;jettySize=auto;html=1;" edge="1" parent="1" source="czCNAfB4eK2hzBIca8a_-6" target="czCNAfB4eK2hzBIca8a_-7">
          <mxGeometry relative="1" as="geometry" />
        </mxCell>
        <mxCell id="czCNAfB4eK2hzBIca8a_-6" value="Ajout / Modif / Suppression&lt;br&gt;&lt;br&gt;Véhicule" style="rounded=0;whiteSpace=wrap;html=1;" vertex="1" parent="1">
          <mxGeometry x="390" y="200" width="120" height="60" as="geometry" />
        </mxCell>
        <mxCell id="RpiR_wWrs781E1UI5E46-3" value="" style="edgeStyle=orthogonalEdgeStyle;rounded=0;orthogonalLoop=1;jettySize=auto;html=1;" edge="1" parent="1" source="czCNAfB4eK2hzBIca8a_-7" target="RpiR_wWrs781E1UI5E46-1">
          <mxGeometry relative="1" as="geometry" />
        </mxCell>
        <mxCell id="czCNAfB4eK2hzBIca8a_-7" value="Conducteur" style="rounded=0;whiteSpace=wrap;html=1;" vertex="1" parent="1">
          <mxGeometry x="560" y="200" width="120" height="60" as="geometry" />
        </mxCell>
        <mxCell id="czCNAfB4eK2hzBIca8a_-20" value="" style="edgeStyle=orthogonalEdgeStyle;rounded=0;orthogonalLoop=1;jettySize=auto;html=1;" edge="1" parent="1" source="czCNAfB4eK2hzBIca8a_-9">
          <mxGeometry relative="1" as="geometry">
            <mxPoint x="410" y="340" as="targetPoint" />
          </mxGeometry>
        </mxCell>
        <mxCell id="czCNAfB4eK2hzBIca8a_-9" value="Gestion personnel" style="rounded=0;whiteSpace=wrap;html=1;" vertex="1" parent="1">
          <mxGeometry x="220" y="310" width="120" height="60" as="geometry" />
        </mxCell>
        <mxCell id="RpiR_wWrs781E1UI5E46-13" value="" style="edgeStyle=orthogonalEdgeStyle;rounded=0;orthogonalLoop=1;jettySize=auto;html=1;" edge="1" parent="1" source="czCNAfB4eK2hzBIca8a_-18" target="RpiR_wWrs781E1UI5E46-12">
          <mxGeometry relative="1" as="geometry" />
        </mxCell>
        <mxCell id="czCNAfB4eK2hzBIca8a_-18" value="Permis" style="rounded=0;whiteSpace=wrap;html=1;" vertex="1" parent="1">
          <mxGeometry x="585" y="310" width="120" height="60" as="geometry" />
        </mxCell>
        <mxCell id="RpiR_wWrs781E1UI5E46-7" value="" style="edgeStyle=orthogonalEdgeStyle;rounded=0;orthogonalLoop=1;jettySize=auto;html=1;" edge="1" parent="1" source="czCNAfB4eK2hzBIca8a_-19" target="RpiR_wWrs781E1UI5E46-5">
          <mxGeometry relative="1" as="geometry" />
        </mxCell>
        <mxCell id="czCNAfB4eK2hzBIca8a_-19" value="Entretiens" style="rounded=0;whiteSpace=wrap;html=1;" vertex="1" parent="1">
          <mxGeometry x="220" y="420" width="120" height="60" as="geometry" />
        </mxCell>
        <mxCell id="RpiR_wWrs781E1UI5E46-4" value="" style="edgeStyle=orthogonalEdgeStyle;rounded=0;orthogonalLoop=1;jettySize=auto;html=1;" edge="1" parent="1" source="RpiR_wWrs781E1UI5E46-1" target="RpiR_wWrs781E1UI5E46-2">
          <mxGeometry relative="1" as="geometry" />
        </mxCell>
        <mxCell id="RpiR_wWrs781E1UI5E46-1" value="Achat / Location" style="rounded=0;whiteSpace=wrap;html=1;" vertex="1" parent="1">
          <mxGeometry x="740" y="200" width="120" height="60" as="geometry" />
        </mxCell>
        <mxCell id="RpiR_wWrs781E1UI5E46-2" value="Achat / Location" style="rounded=0;whiteSpace=wrap;html=1;" vertex="1" parent="1">
          <mxGeometry x="910" y="200" width="120" height="60" as="geometry" />
        </mxCell>
        <mxCell id="RpiR_wWrs781E1UI5E46-5" value="Programme Entretiens" style="rounded=0;whiteSpace=wrap;html=1;" vertex="1" parent="1">
          <mxGeometry x="420" y="420" width="120" height="60" as="geometry" />
        </mxCell>
        <mxCell id="RpiR_wWrs781E1UI5E46-9" value="" style="edgeStyle=orthogonalEdgeStyle;rounded=0;orthogonalLoop=1;jettySize=auto;html=1;" edge="1" parent="1" source="RpiR_wWrs781E1UI5E46-6" target="RpiR_wWrs781E1UI5E46-8">
          <mxGeometry relative="1" as="geometry" />
        </mxCell>
        <mxCell id="RpiR_wWrs781E1UI5E46-6" value="Carburant" style="rounded=0;whiteSpace=wrap;html=1;" vertex="1" parent="1">
          <mxGeometry x="220" y="520" width="120" height="60" as="geometry" />
        </mxCell>
        <mxCell id="RpiR_wWrs781E1UI5E46-8" value="Pleins d&#39;essence" style="rounded=0;whiteSpace=wrap;html=1;" vertex="1" parent="1">
          <mxGeometry x="420" y="520" width="120" height="60" as="geometry" />
        </mxCell>
        <mxCell id="RpiR_wWrs781E1UI5E46-11" value="" style="edgeStyle=orthogonalEdgeStyle;rounded=0;orthogonalLoop=1;jettySize=auto;html=1;" edge="1" parent="1" source="RpiR_wWrs781E1UI5E46-10" target="czCNAfB4eK2hzBIca8a_-18">
          <mxGeometry relative="1" as="geometry" />
        </mxCell>
        <mxCell id="RpiR_wWrs781E1UI5E46-10" value="Ajout / Modif / Suppression&lt;br&gt;&lt;br&gt;Personnel" style="rounded=0;whiteSpace=wrap;html=1;" vertex="1" parent="1">
          <mxGeometry x="410" y="310" width="120" height="60" as="geometry" />
        </mxCell>
        <mxCell id="RpiR_wWrs781E1UI5E46-15" value="" style="edgeStyle=orthogonalEdgeStyle;rounded=0;orthogonalLoop=1;jettySize=auto;html=1;" edge="1" parent="1" source="RpiR_wWrs781E1UI5E46-12" target="RpiR_wWrs781E1UI5E46-14">
          <mxGeometry relative="1" as="geometry" />
        </mxCell>
        <mxCell id="RpiR_wWrs781E1UI5E46-12" value="Caces" style="rounded=0;whiteSpace=wrap;html=1;" vertex="1" parent="1">
          <mxGeometry x="760" y="310" width="120" height="60" as="geometry" />
        </mxCell>
        <mxCell id="RpiR_wWrs781E1UI5E46-14" value="Prêt" style="rounded=0;whiteSpace=wrap;html=1;" vertex="1" parent="1">
          <mxGeometry x="930" y="310" width="120" height="60" as="geometry" />
        </mxCell>
        <mxCell id="RpiR_wWrs781E1UI5E46-16" value="" style="endArrow=none;html=1;rounded=0;entryX=0;entryY=0.5;entryDx=0;entryDy=0;exitX=1;exitY=0.5;exitDx=0;exitDy=0;" edge="1" parent="1" source="czCNAfB4eK2hzBIca8a_-4" target="czCNAfB4eK2hzBIca8a_-9">
          <mxGeometry width="50" height="50" relative="1" as="geometry">
            <mxPoint x="110" y="340" as="sourcePoint" />
            <mxPoint x="160" y="290" as="targetPoint" />
          </mxGeometry>
        </mxCell>
        <mxCell id="RpiR_wWrs781E1UI5E46-17" value="" style="endArrow=none;html=1;rounded=0;entryX=0;entryY=0.5;entryDx=0;entryDy=0;exitX=1;exitY=0.5;exitDx=0;exitDy=0;" edge="1" parent="1" source="czCNAfB4eK2hzBIca8a_-4" target="czCNAfB4eK2hzBIca8a_-19">
          <mxGeometry width="50" height="50" relative="1" as="geometry">
            <mxPoint x="100" y="320" as="sourcePoint" />
            <mxPoint x="180" y="430" as="targetPoint" />
          </mxGeometry>
        </mxCell>
        <mxCell id="RpiR_wWrs781E1UI5E46-18" value="" style="endArrow=none;html=1;rounded=0;entryX=0;entryY=0.5;entryDx=0;entryDy=0;exitX=1.023;exitY=0.647;exitDx=0;exitDy=0;exitPerimeter=0;" edge="1" parent="1" source="czCNAfB4eK2hzBIca8a_-4" target="RpiR_wWrs781E1UI5E46-6">
          <mxGeometry width="50" height="50" relative="1" as="geometry">
            <mxPoint x="110" y="280" as="sourcePoint" />
            <mxPoint x="190" y="500" as="targetPoint" />
          </mxGeometry>
        </mxCell>
      </root>
    </mxGraphModel>
  </diagram>
  <diagram id="xVNrkr5BsP2JXdwRNmCh" name="Page-1">
    <mxGraphModel dx="1050" dy="522" grid="1" gridSize="10" guides="1" tooltips="1" connect="1" arrows="1" fold="1" page="1" pageScale="1" pageWidth="1169" pageHeight="1654" math="0" shadow="0">
      <root>
        <mxCell id="0" />
        <mxCell id="1" parent="0" />
        <mxCell id="_NGnFU5c2PCtwLrbeaYp-4" value="Window Title" style="strokeWidth=1;shadow=0;dashed=0;align=center;html=1;shape=mxgraph.mockup.containers.window;align=left;verticalAlign=top;spacingLeft=8;strokeColor2=#008cff;strokeColor3=#c4c4c4;fontColor=#666666;mainText=;fontSize=17;labelBackgroundColor=none;whiteSpace=wrap;" parent="1" vertex="1">
          <mxGeometry x="90" y="80" width="910" height="440" as="geometry" />
        </mxCell>
      </root>
    </mxGraphModel>
  </diagram>
</mxfile>
